# xmcd
#
# Track frame offsets: 
#        150
#        17302
#        30627
#        43822
#        54582
#        66605
#        78207
#        91965
#        109012
#        124895
#        148185
#        165762
#        180895
#        198177
#        215555
#        233082
#        269942
#
# Disc length: 3842 seconds
#
# Revision: 1
# Processed by: cddbd v1.5.2PL0 Copyright (c) Steve Scherf et al.
# Submitted via: ExactAudioCopy v1.0b3
#
DISCID=e80f0011
DTITLE=Nesmith, Michael - And The Hits etc - Pretty Much etc
DYEAR=1900
DGENRE=Americana
TTITLE0=Tomorrow and Me
TTITLE1=The Upside Of Good-Bye
TTITLE2=Lady Love
TTITLE3=Listening
TTITLE4=Two Different Roads
TTITLE5=The Candidate
TTITLE6=Different Drum
TTITLE7=Harmony Constant
TTITLE8=Keep On
TTITLE9=Roll With The Flow
TTITLE10=Continuing
TTITLE11=Some Of Shelly's Blues
TTITLE12=Release
TTITLE13=Winonah
TTITLE14=Born To Love You
TTITLE15=Back Porch And A Fruit Jar Full Of Iced Tea
TTITLE16=Prairie Lullaby
EXTD=And The Hits Just Keep On Comin' orig. rel. 1972, tracks 1-10\nPr
EXTD=etty Much Your Standard Ranch Stash, orig. rel. 1973, tracks 11-1
EXTD=7
EXTT0=
EXTT1=
EXTT2=
EXTT3=
EXTT4=
EXTT5=
EXTT6=
EXTT7=
EXTT8=
EXTT9=
EXTT10=
EXTT11=
EXTT12=
EXTT13=Michael Nesmith/Linda Hargrove/James Minor
EXTT14=Cindy Walker
EXTT15=The F.F.V.: Trad. Arr. M. Nesmith - Uncle Pen: Bill Monroe
EXTT16=Billy Hill
PLAYORDER=
